<?xml version="1.0" encoding="UTF-8"?>
<svg id="Layer_1" data-name="Layer 1" xmlns="http://www.w3.org/2000/svg" viewBox="0 0 1080 1080">
  <defs>
    <style>
      .cls-1 {
        fill: #f8f5ee;
      }

      .cls-2 {
        fill: #ff4800;
      }

      .cls-3 {
        fill: #ff4800;
      }
    </style>
  </defs>
  <g id="Extended_Shape_3.0" data-name="Extended Shape 3.0">
    <path class="cls-2" d="M192.51,418.61c-.54-29.85,12.45-58.34,35.34-77.5,22.94-19.21,45.89-38.41,68.8-57.66,36.4-30.58,72.63-61.37,109.16-91.8,22.46-18.71,47.31-23.29,76.19-15.83,46,11.88,92.72,20.97,139.02,31.74,62.77,14.6,125.44,29.64,188.14,44.53,5.93,1.41,15.47,4.28,21.18,6.44,33.43,12.62,41.36,28.03,42.67,68.17,3,92.1,12.69,340.77,14.36,372.99,1.39,26.78-8.31,47.82-30.45,62.41-37.32,24.58-176,112.23-207.49,132.28-17.41,11.08-35.25,15.79-56.39,11.85-75.09-14-303.68-53.61-342.47-61.54-38.31-7.83-48.01-18.33-49.53-57.28-2.49-63.9-7.44-309.36-8.53-368.14v-.65Z"/>
  </g>
  <g>
    <path class="cls-1" d="M279.33,676.62h18.73c2.75,0,5.2.6,7.37,1.8,2.17,1.2,3.85,2.82,5.05,4.87,1.2,2.05,1.8,4.31,1.8,6.79,0,2.9-.84,5.45-2.52,7.66-1.68,2.2-3.95,3.73-6.81,4.58.81,1.97,1.94,3.44,3.39,4.41,1.45.97,3.1,1.45,4.96,1.45.7,0,1.29-.06,1.8-.17v9.22c-.97.35-2.17.52-3.6.52-4.1,0-7.52-1.11-10.27-3.33-2.75-2.22-4.93-5.79-6.55-10.7l-.23-.7h-2.73v14.21h-10.38v-40.6ZM300.33,693.76c.89-.91,1.33-2.14,1.33-3.68s-.46-2.62-1.36-3.45c-.91-.83-2.25-1.25-4.03-1.25h-6.55v9.74h6.73c1.7,0,3-.45,3.89-1.36Z"/>
    <path class="cls-1" d="M318.66,676.62h10.38v40.6h-10.38v-40.6Z"/>
    <path class="cls-1" d="M340.76,716.78c-2.44-.68-4.62-1.65-6.55-2.93v-10.03c2.09,1.59,4.32,2.8,6.7,3.65,2.38.85,4.65,1.28,6.81,1.28,1.86,0,3.33-.3,4.44-.9,1.1-.6,1.65-1.44,1.65-2.52,0-.81-.3-1.51-.9-2.09-.6-.58-1.56-1.04-2.87-1.39l-6.5-1.86c-6.42-1.82-9.63-5.55-9.63-11.19,0-2.44.67-4.63,2-6.58,1.33-1.95,3.16-3.47,5.48-4.55,2.32-1.08,4.93-1.62,7.83-1.62,2.44,0,4.63.25,6.58.75,1.95.5,3.9,1.28,5.83,2.32v9.8c-4.41-2.51-8.41-3.77-12.01-3.77-1.62,0-2.89.27-3.8.81-.91.54-1.36,1.28-1.36,2.2,0,1.43.99,2.44,2.96,3.02l5.74,1.68c3.56,1.04,6.3,2.53,8.24,4.47,1.93,1.93,2.9,4.54,2.9,7.83,0,2.48-.67,4.67-2,6.58s-3.21,3.4-5.63,4.47c-2.42,1.06-5.21,1.6-8.38,1.6-2.59,0-5.1-.34-7.54-1.02Z"/>
    <path class="cls-1" d="M368.71,676.62h10.38v40.6h-10.38v-40.6Z"/>
    <path class="cls-1" d="M386.05,676.62h10.15l16.99,23.66v-23.66h10.44v40.6h-10.27l-16.94-23.61v23.61h-10.38v-40.6Z"/>
    <path class="cls-1" d="M438.28,715.1c-3.23-1.8-5.74-4.28-7.54-7.45-1.8-3.17-2.7-6.75-2.7-10.73s.95-7.5,2.84-10.67c1.89-3.17,4.5-5.66,7.8-7.48,3.31-1.82,7.01-2.73,11.11-2.73,4.99,0,9.45,1.04,13.4,3.13v9.69c-1.93-1.01-3.98-1.79-6.15-2.35-2.17-.56-4.33-.84-6.5-.84-2.36,0-4.44.47-6.24,1.42-1.8.95-3.19,2.27-4.18,3.97-.99,1.7-1.48,3.65-1.48,5.86s.47,4.28,1.42,6c.95,1.72,2.23,3.04,3.86,3.97,1.62.93,3.44,1.39,5.45,1.39,2.17,0,4.01-.55,5.54-1.65,1.53-1.1,2.52-2.72,2.99-4.84h-9.74v-8.06h20.13v4.64c0,3.83-.84,7.21-2.52,10.15-1.68,2.94-3.97,5.22-6.87,6.84-2.9,1.62-6.11,2.44-9.63,2.44-4.1,0-7.76-.9-10.99-2.7Z"/>
  </g>
  <g>
    <circle class="cls-1" cx="724.89" cy="692.31" r="61.67"/>
    <path class="cls-3" d="M747.67,689.9h-9.66c-.86,15.99-10.62,33.56-35.89,33.56-1.32,0-2.4-1.08-2.4-2.4l.02.05c0-1.32,1.08-2.4,2.4-2.4,22.97,0,31.17-16.09,31.17-31.17,0-1.32,1.08-2.4,2.4-2.4h6.59s-16.18-18-16.18-18l-16.21,18h6.59c1.15,0,2.13.79,2.35,1.92.1.51,2.51,13.14-5.23,23.47-.79,1.05-2.3,1.27-3.36.48-1.05-.79-1.27-2.3-.48-3.35,4.82-6.42,4.89-14.17,4.61-17.74h-9.88c-.93,0-1.8-.55-2.18-1.41-.38-.86-.22-1.89.41-2.59l21.58-23.97c.46-.5,1.1-.79,1.77-.79.67,0,1.32.29,1.77.79l21.58,23.97c.62.7.79,1.7.41,2.57-.38.86-1.25,1.41-2.18,1.41Z"/>
  </g>
  <g>
    <path class="cls-1" d="M290.36,508.85h-11.65v-5.04h28.56v5.04h-11.65v34.16h-5.26v-34.16Z"/>
    <path class="cls-1" d="M313.46,541.66c-2.48-1.27-4.44-3.07-5.88-5.4-1.44-2.33-2.16-5.05-2.16-8.15s.65-5.67,1.96-8.06c1.31-2.39,3.08-4.25,5.32-5.57s4.7-1.99,7.39-1.99,4.92.61,6.92,1.82c2,1.21,3.55,2.92,4.65,5.12,1.1,2.2,1.65,4.76,1.65,7.67,0,.82-.06,1.61-.17,2.35h-22.51c.3,2.76,1.48,5.02,3.56,6.78,2.07,1.75,4.58,2.63,7.53,2.63,1.68,0,3.29-.22,4.84-.67s3.16-1.1,4.84-1.96v4.93c-1.27.78-2.76,1.38-4.48,1.79-1.72.41-3.45.62-5.21.62-3.02,0-5.78-.63-8.26-1.9ZM328.1,525.2c-.04-1.49-.41-2.87-1.12-4.14-.71-1.27-1.67-2.27-2.88-3-1.21-.73-2.55-1.09-4-1.09-2.35,0-4.36.73-6.02,2.18-1.66,1.46-2.74,3.47-3.22,6.05h17.25Z"/>
    <path class="cls-1" d="M344.51,541.55c-2.28-1.34-4.05-3.19-5.32-5.54-1.27-2.35-1.9-5-1.9-7.95s.63-5.61,1.9-7.98c1.27-2.37,3.04-4.23,5.32-5.57s4.83-2.02,7.67-2.02c3.28,0,6.23.82,8.85,2.46v5.32c-1.38-1.04-2.7-1.82-3.95-2.32s-2.6-.76-4.06-.76c-2.05,0-3.88.49-5.49,1.46-1.61.97-2.86,2.28-3.75,3.92-.9,1.64-1.34,3.47-1.34,5.49s.45,3.85,1.34,5.49c.9,1.64,2.15,2.94,3.75,3.89,1.6.95,3.43,1.43,5.49,1.43,1.38,0,2.71-.26,3.98-.78,1.27-.52,2.61-1.29,4.03-2.3v5.32c-2.76,1.64-5.71,2.46-8.85,2.46-2.84,0-5.4-.67-7.67-2.02Z"/>
    <path class="cls-1" d="M367.97,502.12h5.04v14.9c1.08-1.46,2.43-2.58,4.03-3.36,1.6-.78,3.36-1.18,5.26-1.18,2.24,0,4.17.51,5.8,1.54,1.62,1.03,2.86,2.41,3.7,4.14s1.26,3.69,1.26,5.85v18.98h-5.04v-17.75c0-2.73-.6-4.74-1.79-6.05-1.2-1.31-2.89-1.96-5.1-1.96-1.42,0-2.75.36-4,1.06-1.25.71-2.25,1.71-3,3-.75,1.29-1.12,2.75-1.12,4.4v17.3h-5.04v-40.88Z"/>
    <path class="cls-1" d="M401.01,513.04h5.04v3.98c1.08-1.46,2.43-2.58,4.03-3.36,1.6-.78,3.36-1.18,5.26-1.18,2.24,0,4.17.51,5.8,1.54,1.62,1.03,2.86,2.41,3.7,4.14s1.26,3.69,1.26,5.85v18.98h-5.04v-17.75c0-2.73-.6-4.74-1.79-6.05-1.2-1.31-2.89-1.96-5.1-1.96-1.42,0-2.75.36-4,1.06-1.25.71-2.25,1.71-3,3-.75,1.29-1.12,2.75-1.12,4.4v17.3h-5.04v-29.96Z"/>
    <path class="cls-1" d="M439.37,541.49c-2.35-1.38-4.19-3.26-5.52-5.63-1.33-2.37-1.99-4.97-1.99-7.81s.66-5.44,1.99-7.81c1.32-2.37,3.16-4.26,5.52-5.66,2.35-1.4,5-2.1,7.95-2.1s5.6.7,7.95,2.1c2.35,1.4,4.19,3.29,5.52,5.66,1.33,2.37,1.99,4.98,1.99,7.81s-.66,5.44-1.99,7.81c-1.33,2.37-3.16,4.25-5.52,5.63-2.35,1.38-5,2.07-7.95,2.07s-5.6-.69-7.95-2.07ZM452.56,537.4c1.59-.97,2.83-2.29,3.72-3.95.9-1.66,1.34-3.46,1.34-5.4s-.45-3.75-1.34-5.43c-.9-1.68-2.14-3-3.72-3.98-1.59-.97-3.33-1.46-5.24-1.46s-3.65.49-5.24,1.46c-1.59.97-2.83,2.3-3.72,3.98-.9,1.68-1.34,3.49-1.34,5.43s.45,3.74,1.34,5.4c.9,1.66,2.14,2.98,3.72,3.95,1.59.97,3.33,1.46,5.24,1.46s3.65-.48,5.24-1.46Z"/>
    <path class="cls-1" d="M470.68,541.46c-1.19-1.4-1.79-3.22-1.79-5.46v-33.88h5.04v33.04c0,2.43,1.04,3.64,3.14,3.64.6,0,1.19-.11,1.79-.34v4.7c-.9.26-1.94.39-3.14.39-2.17,0-3.84-.7-5.04-2.1Z"/>
    <path class="cls-1" d="M489.43,541.49c-2.35-1.38-4.19-3.26-5.52-5.63-1.33-2.37-1.99-4.97-1.99-7.81s.66-5.44,1.99-7.81c1.32-2.37,3.16-4.26,5.52-5.66,2.35-1.4,5-2.1,7.95-2.1s5.6.7,7.95,2.1c2.35,1.4,4.19,3.29,5.52,5.66,1.33,2.37,1.99,4.98,1.99,7.81s-.66,5.44-1.99,7.81c-1.33,2.37-3.16,4.25-5.52,5.63-2.35,1.38-5,2.07-7.95,2.07s-5.6-.69-7.95-2.07ZM502.62,537.4c1.59-.97,2.83-2.29,3.72-3.95.9-1.66,1.34-3.46,1.34-5.4s-.45-3.75-1.34-5.43c-.9-1.68-2.14-3-3.72-3.98-1.59-.97-3.33-1.46-5.24-1.46s-3.65.49-5.24,1.46c-1.59.97-2.83,2.3-3.72,3.98-.9,1.68-1.34,3.49-1.34,5.43s.45,3.74,1.34,5.4c.9,1.66,2.14,2.98,3.72,3.95,1.59.97,3.33,1.46,5.24,1.46s3.65-.48,5.24-1.46Z"/>
    <path class="cls-1" d="M525.42,555.21c-1.89-.45-3.69-1.21-5.4-2.3v-5.49c1.94,1.38,3.83,2.35,5.66,2.91,1.83.56,3.71.84,5.66.84,2.69,0,4.93-.78,6.72-2.35,1.79-1.57,2.69-3.68,2.69-6.33v-4.76c-.93,1.42-2.26,2.56-3.98,3.42-1.72.86-3.57,1.29-5.54,1.29-2.61,0-5.03-.66-7.25-1.99-2.22-1.32-3.98-3.13-5.26-5.4s-1.93-4.82-1.93-7.62.64-5.34,1.93-7.62c1.29-2.28,3.04-4.07,5.26-5.38,2.22-1.31,4.64-1.96,7.25-1.96,1.98,0,3.83.43,5.54,1.29,1.72.86,3.04,2,3.98,3.42v-4.14h5.04v28.78c0,2.43-.5,4.7-1.51,6.83s-2.62,3.86-4.84,5.21c-2.22,1.34-5.07,2.02-8.54,2.02-1.76,0-3.58-.22-5.46-.67ZM536.11,536.4c1.44-.9,2.58-2.13,3.44-3.7.86-1.57,1.29-3.32,1.29-5.26s-.43-3.7-1.29-5.26c-.86-1.57-2.01-2.79-3.44-3.67-1.44-.88-3-1.32-4.68-1.32s-3.25.44-4.7,1.32c-1.46.88-2.62,2.1-3.5,3.67s-1.32,3.32-1.32,5.26.44,3.7,1.32,5.26c.88,1.57,2.04,2.8,3.5,3.7s3.02,1.34,4.7,1.34,3.24-.45,4.68-1.34Z"/>
    <path class="cls-1" d="M552.99,554.88v-4.59c1.12.41,2.24.62,3.36.62,2.31,0,3.92-1.06,4.82-3.19l2.41-5.54-12.88-29.12h5.77l9.69,23.07,9.63-23.07h5.66l-15.62,36.01c-.93,2.13-2.14,3.76-3.61,4.9-1.48,1.14-3.29,1.71-5.46,1.71-1.38,0-2.63-.26-3.75-.78Z"/>
    <path class="cls-1" d="M601.21,503.81h14.39c2.46,0,4.63.5,6.5,1.51s3.31,2.4,4.34,4.17c1.03,1.77,1.54,3.82,1.54,6.13s-.51,4.43-1.54,6.24c-1.03,1.81-2.47,3.23-4.34,4.26-1.87,1.03-4.03,1.54-6.5,1.54h-9.13v15.34h-5.26v-39.2ZM620.56,520.83c1.36-1.27,2.04-2.97,2.04-5.1s-.68-3.73-2.04-5.04c-1.36-1.31-3.26-1.96-5.68-1.96h-8.4v14h8.4c2.43,0,4.32-.63,5.68-1.9Z"/>
    <path class="cls-1" d="M635.96,542.44c-1.47-.75-2.64-1.81-3.5-3.19-.86-1.38-1.29-2.99-1.29-4.82,0-2.61.9-4.77,2.69-6.47,1.79-1.7,4.27-2.55,7.45-2.55h9.13v-1.62c0-2.2-.73-3.85-2.18-4.96-1.46-1.1-3.3-1.65-5.54-1.65-2.91,0-5.9,1.08-8.96,3.25v-5.1c3.06-1.87,6.42-2.8,10.08-2.8,2.09,0,4.02.44,5.8,1.32,1.77.88,3.18,2.17,4.23,3.86,1.04,1.7,1.57,3.76,1.57,6.19v13.05c0,1.38.5,2.07,1.51,2.07.3,0,.73-.09,1.29-.28v4.09c-.9.48-1.94.73-3.14.73-1.27,0-2.31-.39-3.11-1.18-.8-.78-1.28-2-1.43-3.64-1.12,1.53-2.52,2.72-4.2,3.56-1.68.84-3.55,1.26-5.6,1.26-1.72,0-3.31-.37-4.79-1.12ZM645.84,537.99c1.34-.69,2.44-1.68,3.3-2.97.86-1.29,1.29-2.77,1.29-4.45v-1.06h-8.29c-1.83,0-3.26.45-4.28,1.34-1.03.9-1.54,2.09-1.54,3.58s.49,2.54,1.48,3.36c.99.82,2.29,1.23,3.89,1.23,1.42,0,2.8-.34,4.14-1.04Z"/>
    <path class="cls-1" d="M663.93,513.04h5.04v4.65c.93-1.68,2.17-2.97,3.72-3.86,1.55-.9,3.07-1.34,4.56-1.34,1.04,0,1.98.17,2.8.5v5.1c-1.12-.45-2.3-.67-3.53-.67-2.2,0-4.01.89-5.43,2.66-1.42,1.77-2.13,4.04-2.13,6.8v16.13h-5.04v-29.96Z"/>
    <path class="cls-1" d="M689.75,540.82c-1.61-1.83-2.41-4.4-2.41-7.73v-15.46h-4.48v-4.59h4.48v-7.28h5.04v7.28h8.12v4.59h-8.12v15.57c0,1.87.48,3.27,1.43,4.2.95.93,2.21,1.4,3.78,1.4.93,0,1.9-.19,2.91-.56v4.59c-.45.22-1.05.4-1.79.53-.75.13-1.44.2-2.07.2-2.99,0-5.28-.91-6.89-2.74Z"/>
    <path class="cls-1" d="M706.88,513.04h5.04v3.98c1.08-1.46,2.43-2.58,4.03-3.36,1.6-.78,3.36-1.18,5.26-1.18,2.24,0,4.17.51,5.8,1.54,1.62,1.03,2.86,2.41,3.7,4.14s1.26,3.69,1.26,5.85v18.98h-5.04v-17.75c0-2.73-.6-4.74-1.79-6.05-1.2-1.31-2.89-1.96-5.1-1.96-1.42,0-2.75.36-4,1.06-1.25.71-2.25,1.71-3,3-.75,1.29-1.12,2.75-1.12,4.4v17.3h-5.04v-29.96Z"/>
    <path class="cls-1" d="M745.77,541.66c-2.48-1.27-4.44-3.07-5.88-5.4-1.44-2.33-2.16-5.05-2.16-8.15s.65-5.67,1.96-8.06c1.31-2.39,3.08-4.25,5.32-5.57s4.7-1.99,7.39-1.99,4.92.61,6.92,1.82c2,1.21,3.55,2.92,4.65,5.12,1.1,2.2,1.65,4.76,1.65,7.67,0,.82-.06,1.61-.17,2.35h-22.51c.3,2.76,1.48,5.02,3.56,6.78,2.07,1.75,4.58,2.63,7.53,2.63,1.68,0,3.29-.22,4.84-.67s3.16-1.1,4.84-1.96v4.93c-1.27.78-2.76,1.38-4.48,1.79-1.72.41-3.45.62-5.21.62-3.02,0-5.78-.63-8.26-1.9ZM760.42,525.2c-.04-1.49-.41-2.87-1.12-4.14-.71-1.27-1.67-2.27-2.88-3-1.21-.73-2.55-1.09-4-1.09-2.35,0-4.36.73-6.02,2.18-1.66,1.46-2.74,3.47-3.22,6.05h17.25Z"/>
    <path class="cls-1" d="M771.78,513.04h5.04v4.65c.93-1.68,2.17-2.97,3.72-3.86,1.55-.9,3.07-1.34,4.56-1.34,1.04,0,1.98.17,2.8.5v5.1c-1.12-.45-2.3-.67-3.53-.67-2.2,0-4.01.89-5.43,2.66-1.42,1.77-2.13,4.04-2.13,6.8v16.13h-5.04v-29.96Z"/>
    <path class="cls-1" d="M281.9,571h14.39c2.46,0,4.63.5,6.5,1.51,1.87,1.01,3.31,2.4,4.34,4.17,1.03,1.77,1.54,3.82,1.54,6.13s-.51,4.43-1.54,6.24c-1.03,1.81-2.47,3.23-4.34,4.26-1.87,1.03-4.03,1.54-6.5,1.54h-9.13v15.34h-5.26v-39.2ZM301.25,588.03c1.36-1.27,2.04-2.97,2.04-5.1s-.68-3.73-2.04-5.04c-1.36-1.31-3.26-1.96-5.68-1.96h-8.4v14h8.4c2.43,0,4.32-.63,5.68-1.9Z"/>
    <path class="cls-1" d="M314.55,580.24h5.04v4.65c.93-1.68,2.17-2.97,3.72-3.86,1.55-.9,3.07-1.34,4.56-1.34,1.04,0,1.98.17,2.8.5v5.1c-1.12-.45-2.3-.67-3.53-.67-2.2,0-4.01.89-5.43,2.66-1.42,1.77-2.13,4.04-2.13,6.8v16.13h-5.04v-29.96Z"/>
    <path class="cls-1" d="M341.04,608.69c-2.35-1.38-4.19-3.26-5.52-5.63-1.33-2.37-1.99-4.97-1.99-7.81s.66-5.44,1.99-7.81c1.32-2.37,3.16-4.26,5.52-5.66,2.35-1.4,5-2.1,7.95-2.1s5.6.7,7.95,2.1c2.35,1.4,4.19,3.29,5.52,5.66,1.33,2.37,1.99,4.98,1.99,7.81s-.66,5.44-1.99,7.81c-1.33,2.37-3.16,4.25-5.52,5.63-2.35,1.38-5,2.07-7.95,2.07s-5.6-.69-7.95-2.07ZM354.23,604.6c1.59-.97,2.83-2.29,3.72-3.95.9-1.66,1.34-3.46,1.34-5.4s-.45-3.75-1.34-5.43c-.9-1.68-2.14-3-3.72-3.98-1.59-.97-3.33-1.46-5.24-1.46s-3.65.49-5.24,1.46c-1.59.97-2.83,2.3-3.72,3.98-.9,1.68-1.34,3.49-1.34,5.43s.45,3.74,1.34,5.4c.9,1.66,2.14,2.98,3.72,3.95,1.59.97,3.33,1.46,5.24,1.46s3.65-.48,5.24-1.46Z"/>
    <path class="cls-1" d="M377.02,622.41c-1.89-.45-3.69-1.21-5.4-2.3v-5.49c1.94,1.38,3.83,2.35,5.66,2.91,1.83.56,3.71.84,5.66.84,2.69,0,4.93-.78,6.72-2.35,1.79-1.57,2.69-3.68,2.69-6.33v-4.76c-.93,1.42-2.26,2.56-3.98,3.42-1.72.86-3.57,1.29-5.54,1.29-2.61,0-5.03-.66-7.25-1.99-2.22-1.32-3.98-3.13-5.26-5.4-1.29-2.28-1.93-4.82-1.93-7.62s.64-5.34,1.93-7.62c1.29-2.28,3.04-4.07,5.26-5.38,2.22-1.31,4.64-1.96,7.25-1.96,1.98,0,3.83.43,5.54,1.29,1.72.86,3.04,2,3.98,3.42v-4.14h5.04v28.78c0,2.43-.5,4.7-1.51,6.83s-2.62,3.86-4.84,5.21c-2.22,1.34-5.07,2.02-8.54,2.02-1.76,0-3.58-.22-5.46-.67ZM387.71,603.6c1.44-.9,2.58-2.13,3.44-3.7.86-1.57,1.29-3.32,1.29-5.26s-.43-3.7-1.29-5.26c-.86-1.57-2.01-2.79-3.44-3.67-1.44-.88-3-1.32-4.68-1.32s-3.25.44-4.7,1.32c-1.46.88-2.62,2.1-3.5,3.67-.88,1.57-1.32,3.32-1.32,5.26s.44,3.7,1.32,5.26c.88,1.57,2.04,2.8,3.5,3.7,1.46.9,3.02,1.34,4.7,1.34s3.24-.45,4.68-1.34Z"/>
    <path class="cls-1" d="M405.66,580.24h5.04v4.65c.93-1.68,2.17-2.97,3.72-3.86,1.55-.9,3.07-1.34,4.56-1.34,1.04,0,1.98.17,2.8.5v5.1c-1.12-.45-2.3-.67-3.53-.67-2.2,0-4.01.89-5.43,2.66-1.42,1.77-2.13,4.04-2.13,6.8v16.13h-5.04v-29.96Z"/>
    <path class="cls-1" d="M428.76,609.64c-1.47-.75-2.64-1.81-3.5-3.19-.86-1.38-1.29-2.99-1.29-4.82,0-2.61.9-4.77,2.69-6.47,1.79-1.7,4.27-2.55,7.45-2.55h9.13v-1.62c0-2.2-.73-3.85-2.18-4.96-1.46-1.1-3.3-1.65-5.54-1.65-2.91,0-5.9,1.08-8.96,3.25v-5.1c3.06-1.87,6.42-2.8,10.08-2.8,2.09,0,4.02.44,5.8,1.32,1.77.88,3.18,2.17,4.23,3.86,1.04,1.7,1.57,3.76,1.57,6.19v13.05c0,1.38.5,2.07,1.51,2.07.3,0,.73-.09,1.29-.28v4.09c-.9.48-1.94.73-3.14.73-1.27,0-2.31-.39-3.11-1.18-.8-.78-1.28-2-1.43-3.64-1.12,1.53-2.52,2.72-4.2,3.56-1.68.84-3.55,1.26-5.6,1.26-1.72,0-3.31-.37-4.79-1.12ZM438.65,605.19c1.34-.69,2.44-1.68,3.3-2.97.86-1.29,1.29-2.77,1.29-4.45v-1.06h-8.29c-1.83,0-3.26.45-4.28,1.34-1.03.9-1.54,2.09-1.54,3.58s.49,2.54,1.48,3.36c.99.82,2.29,1.23,3.89,1.23,1.42,0,2.8-.34,4.14-1.04Z"/>
    <path class="cls-1" d="M456.73,580.24h5.04v3.98c2.13-3.02,5.08-4.54,8.85-4.54,2.16,0,4.01.48,5.54,1.43,1.53.95,2.65,2.31,3.36,4.06,1.12-1.79,2.58-3.15,4.37-4.09,1.79-.93,3.7-1.4,5.71-1.4,3.1,0,5.54.98,7.34,2.94s2.69,4.64,2.69,8.04v19.54h-5.04v-18.09c0-2.58-.53-4.5-1.6-5.77-1.06-1.27-2.59-1.9-4.56-1.9-1.31,0-2.56.36-3.75,1.06-1.2.71-2.16,1.67-2.88,2.88-.73,1.21-1.09,2.55-1.09,4v17.81h-5.04v-18.09c0-2.58-.53-4.5-1.6-5.77-1.06-1.27-2.6-1.9-4.62-1.9-1.31,0-2.56.35-3.75,1.04-1.19.69-2.15,1.65-2.86,2.88-.71,1.23-1.06,2.58-1.06,4.03v17.81h-5.04v-29.96Z"/>
  </g>
  <g>
    <polygon class="cls-1" points="324.5 423.89 295.65 423.89 295.65 454.28 281.95 454.28 281.95 379.29 295.65 379.29 295.65 410.71 324.5 410.71 324.5 379.29 338.19 379.29 338.19 454.28 324.5 454.28 324.5 423.89"/>
    <path class="cls-1" d="M382.03,430.04c0,6.25-5.09,11.33-11.33,11.33s-11.33-5.08-11.33-11.33v-32.12h-12.97v32.12c0,13.4,10.9,24.3,24.3,24.3s24.3-10.9,24.3-24.3v-32.12h-12.97v32.12Z"/>
    <path class="cls-1" d="M478.29,401.23c0-6.59,4.36-8.67,9.13-8.67,3.84,0,8.93,2.92,12.24,6.48l8.51-10.03c-4.25-5.74-12.86-9.71-19.92-9.71-14.12,0-24.29,8.25-24.29,21.94,0,25.38,31.03,17.34,31.03,31.55,0,4.38-4.25,8.25-9.13,8.25-7.68,0-10.17-3.76-13.7-7.73l-9.45,9.82c6.02,7.42,13.49,11.18,22.42,11.18,13.39,0,24.18-8.36,24.18-21.42,0-28.2-31.03-19.43-31.03-31.65Z"/>
    <path class="cls-1" d="M670.26,442.3c-7.68,0-9.86-3.32-9.86-8.41v-22.52h11.93v-11.41h-11.93v-15.05l-13.18,5.91v45.87c0,11.73,8.09,17.64,19.19,17.64,1.66,0,3.95-.11,5.19-.41l3.22-11.83c-1.45.1-3.11.2-4.57.2Z"/>
    <path class="cls-1" d="M431.48,398.3c-6.43,0-10.93,1.87-15.26,6.13v-24.69h-13.01v45.75c0,17.12,12.38,28.85,26.29,28.85,15.46,0,29.01-11.94,29.01-28.02s-12.49-28.02-27.02-28.02ZM431.4,441.24c-8.15,0-14.76-6.61-14.76-14.76s6.61-14.76,14.76-14.76,14.76,6.61,14.76,14.76-6.61,14.76-14.76,14.76Z"/>
    <path class="cls-1" d="M572.77,425.64c0-16.08-13.55-28.02-29.01-28.02-13.91,0-26.29,11.73-26.29,28.85v45.75h13.01v-24.69c4.34,4.26,8.83,6.13,15.26,6.13,14.53,0,27.02-12.14,27.02-28.02ZM560.42,425.48c0,8.15-6.61,14.76-14.76,14.76s-14.76-6.61-14.76-14.76,6.61-14.76,14.76-14.76,14.76,6.61,14.76,14.76Z"/>
    <path class="cls-1" d="M614.82,396.99v-13.07c3.41-1.61,5.8-5.06,5.8-9.07v-.3c0-5.53-4.52-10.05-10.05-10.05h-.3c-5.53,0-10.05,4.52-10.05,10.05v.3c0,4.01,2.39,7.46,5.8,9.07v13.07c-5.08.78-9.72,2.88-13.55,5.96l-35.89-27.92c.24-.91.4-1.85.4-2.83,0-6.26-5.06-11.35-11.32-11.35-6.26,0-11.35,5.06-11.35,11.32,0,6.26,5.06,11.35,11.32,11.35,2.04,0,3.93-.58,5.59-1.52l35.31,27.47c-3,4.53-4.76,9.96-4.76,15.81s1.93,11.78,5.2,16.43l-10.74,10.74c-.85-.25-1.73-.43-2.66-.43-5.15,0-9.32,4.17-9.32,9.32s4.17,9.32,9.32,9.32,9.32-4.17,9.32-9.32c0-.93-.18-1.81-.43-2.66l10.62-10.62c4.82,3.68,10.82,5.89,17.36,5.89,15.83,0,28.66-12.83,28.66-28.66,0-14.33-10.53-26.17-24.26-28.29ZM610.42,439.98c-8.12,0-14.7-6.58-14.7-14.7s6.58-14.7,14.7-14.7,14.7,6.58,14.7,14.7-6.58,14.7-14.7,14.7Z"/>
  </g>
</svg>